HIERARCHY
ROOT mixamorig:Hips
{
	OFFSET 0.000000 94.554123 0.000000
	CHANNELS 6 Xposition Yposition Zposition Xrotation Yrotation Zrotation
	JOINT mixamorig:Spine
	{
		OFFSET 0.000000 9.988899 -0.514100
		CHANNELS 3 Xrotation Yrotation Zrotation
		JOINT mixamorig:Spine1
		{
			OFFSET 0.000000 11.653679 -0.599751
			CHANNELS 3 Xrotation Yrotation Zrotation
			JOINT mixamorig:Spine2
			{
				OFFSET 0.000000 13.318481 -0.685429
				CHANNELS 3 Xrotation Yrotation Zrotation
				JOINT mixamorig:Neck
				{
					OFFSET 0.000000 14.983261 -0.771106
					CHANNELS 3 Xrotation Yrotation Zrotation
					JOINT mixamorig:Head
					{
						OFFSET 0.000000 10.043304 2.801000
						CHANNELS 3 Xrotation Yrotation Zrotation
						JOINT mixamorig:HeadTop_End
						{
							OFFSET 0.000000 19.370499 5.402200
							CHANNELS 3 Xrotation Yrotation Zrotation
							End Site
							{
								OFFSET 0.000000 20.109695 0.000000
							}
						}
					}
				}
				JOINT mixamorig:LeftShoulder
				{
					OFFSET 5.890800 13.419983 -0.745926
					CHANNELS 3 Xrotation Yrotation Zrotation
					JOINT mixamorig:LeftArm
					{
						OFFSET 11.984735 -3.101700 0.050316
						CHANNELS 3 Xrotation Yrotation Zrotation
						JOINT mixamorig:LeftForeArm
						{
							OFFSET 23.321905 0.000000 0.000000
							CHANNELS 3 Xrotation Yrotation Zrotation
							JOINT mixamorig:LeftHand
							{
								OFFSET 25.153908 0.000000 0.000001
								CHANNELS 3 Xrotation Yrotation Zrotation
								JOINT mixamorig:LeftHandThumb1
								{
									OFFSET 2.688713 -1.230148 2.514884
									CHANNELS 3 Xrotation Yrotation Zrotation
									JOINT mixamorig:LeftHandThumb2
									{
										OFFSET 2.405396 -1.388763 1.388756
										CHANNELS 3 Xrotation Yrotation Zrotation
										JOINT mixamorig:LeftHandThumb3
										{
											OFFSET 2.395073 -1.382797 1.382794
											CHANNELS 3 Xrotation Yrotation Zrotation
											JOINT mixamorig:LeftHandThumb4
											{
												OFFSET 1.881668 -1.086380 1.086381
												CHANNELS 3 Xrotation Yrotation Zrotation
												End Site
												{
													OFFSET 1.674576 -1.061920 1.403283
												}
											}
										}
									}
								}
								JOINT mixamorig:LeftHandIndex1
								{
									OFFSET 8.511635 -0.363083 2.405464
									CHANNELS 3 Xrotation Yrotation Zrotation
									JOINT mixamorig:LeftHandIndex2
									{
										OFFSET 3.013802 0.000000 0.000000
										CHANNELS 3 Xrotation Yrotation Zrotation
										JOINT mixamorig:LeftHandIndex3
										{
											OFFSET 2.795700 0.000000 0.000000
											CHANNELS 3 Xrotation Yrotation Zrotation
											JOINT mixamorig:LeftHandIndex4
											{
												OFFSET 2.454002 0.000000 0.000000
												CHANNELS 3 Xrotation Yrotation Zrotation
												End Site
												{
													OFFSET 2.453995 0.000000 -0.002500
												}
											}
										}
									}
								}
								JOINT mixamorig:LeftHandMiddle1
								{
									OFFSET 8.357803 0.000000 0.000000
									CHANNELS 3 Xrotation Yrotation Zrotation
									JOINT mixamorig:LeftHandMiddle2
									{
										OFFSET 3.307404 0.000000 0.000000
										CHANNELS 3 Xrotation Yrotation Zrotation
										JOINT mixamorig:LeftHandMiddle3
										{
											OFFSET 3.061005 0.000000 0.000000
											CHANNELS 3 Xrotation Yrotation Zrotation
											JOINT mixamorig:LeftHandMiddle4
											{
												OFFSET 2.645699 0.000000 0.000000
												CHANNELS 3 Xrotation Yrotation Zrotation
												End Site
												{
													OFFSET 2.645706 0.000000 -0.001900
												}
											}
										}
									}
								}
								JOINT mixamorig:LeftHandRing1
								{
									OFFSET 8.235176 -0.073303 -2.048958
									CHANNELS 3 Xrotation Yrotation Zrotation
									JOINT mixamorig:LeftHandRing2
									{
										OFFSET 2.814804 0.000000 0.000000
										CHANNELS 3 Xrotation Yrotation Zrotation
										JOINT mixamorig:LeftHandRing3
										{
											OFFSET 2.662102 0.000000 0.000000
											CHANNELS 3 Xrotation Yrotation Zrotation
											JOINT mixamorig:LeftHandRing4
											{
												OFFSET 2.324699 0.000000 0.000000
												CHANNELS 3 Xrotation Yrotation Zrotation
												End Site
												{
													OFFSET 2.324707 0.000000 0.000400
												}
											}
										}
									}
								}
								JOINT mixamorig:LeftHandPinky1
								{
									OFFSET 7.776482 -0.344757 -4.135562
									CHANNELS 3 Xrotation Yrotation Zrotation
									JOINT mixamorig:LeftHandPinky2
									{
										OFFSET 2.337105 0.000000 0.000000
										CHANNELS 3 Xrotation Yrotation Zrotation
										JOINT mixamorig:LeftHandPinky3
										{
											OFFSET 1.932404 0.000000 0.000000
											CHANNELS 3 Xrotation Yrotation Zrotation
											JOINT mixamorig:LeftHandPinky4
											{
												OFFSET 1.642700 0.000000 0.000000
												CHANNELS 3 Xrotation Yrotation Zrotation
												End Site
												{
													OFFSET 1.642700 0.000000 -0.000500
												}
											}
										}
									}
								}
							}
						}
					}
				}
				JOINT mixamorig:RightShoulder
				{
					OFFSET -5.890800 13.419998 -0.796293
					CHANNELS 3 Xrotation Yrotation Zrotation
					JOINT mixamorig:RightArm
					{
						OFFSET -11.984732 -3.101715 -0.050333
						CHANNELS 3 Xrotation Yrotation Zrotation
						JOINT mixamorig:RightForeArm
						{
							OFFSET -23.311098 0.000000 0.000001
							CHANNELS 3 Xrotation Yrotation Zrotation
							JOINT mixamorig:RightHand
							{
								OFFSET -25.158005 0.000000 0.000001
								CHANNELS 3 Xrotation Yrotation Zrotation
								JOINT mixamorig:RightHandThumb1
								{
									OFFSET -2.727959 -1.171844 2.549707
									CHANNELS 3 Xrotation Yrotation Zrotation
									JOINT mixamorig:RightHandThumb2
									{
										OFFSET -2.425117 -1.400146 1.400141
										CHANNELS 3 Xrotation Yrotation Zrotation
										JOINT mixamorig:RightHandThumb3
										{
											OFFSET -2.302261 -1.329208 1.329210
											CHANNELS 3 Xrotation Yrotation Zrotation
											JOINT mixamorig:RightHandThumb4
											{
												OFFSET -1.839920 -1.062286 1.062279
												CHANNELS 3 Xrotation Yrotation Zrotation
												End Site
												{
													OFFSET -1.522240 -1.000397 1.524534
												}
											}
										}
									}
								}
								JOINT mixamorig:RightHandIndex1
								{
									OFFSET -8.415245 -0.274536 2.401452
									CHANNELS 3 Xrotation Yrotation Zrotation
									JOINT mixamorig:RightHandIndex2
									{
										OFFSET -3.031937 0.000000 0.000000
										CHANNELS 3 Xrotation Yrotation Zrotation
										JOINT mixamorig:RightHandIndex3
										{
											OFFSET -2.839401 0.000000 0.000000
											CHANNELS 3 Xrotation Yrotation Zrotation
											JOINT mixamorig:RightHandIndex4
											{
												OFFSET -2.415825 0.000000 0.000000
												CHANNELS 3 Xrotation Yrotation Zrotation
												End Site
												{
													OFFSET -2.415810 -0.000137 -0.011099
												}
											}
										}
									}
								}
								JOINT mixamorig:RightHandMiddle1
								{
									OFFSET -8.445801 0.000000 0.000000
									CHANNELS 3 Xrotation Yrotation Zrotation
									JOINT mixamorig:RightHandMiddle2
									{
										OFFSET -3.261909 0.000000 0.000000
										CHANNELS 3 Xrotation Yrotation Zrotation
										JOINT mixamorig:RightHandMiddle3
										{
											OFFSET -3.026810 0.000000 0.000000
											CHANNELS 3 Xrotation Yrotation Zrotation
											JOINT mixamorig:RightHandMiddle4
											{
												OFFSET -2.703903 0.000000 0.000000
												CHANNELS 3 Xrotation Yrotation Zrotation
												End Site
												{
													OFFSET -2.703903 -0.000031 -0.002500
												}
											}
										}
									}
								}
								JOINT mixamorig:RightHandRing1
								{
									OFFSET -8.515076 0.086319 -2.037783
									CHANNELS 3 Xrotation Yrotation Zrotation
									JOINT mixamorig:RightHandRing2
									{
										OFFSET -2.681702 0.000000 0.000000
										CHANNELS 3 Xrotation Yrotation Zrotation
										JOINT mixamorig:RightHandRing3
										{
											OFFSET -2.605904 0.000000 0.000000
											CHANNELS 3 Xrotation Yrotation Zrotation
											JOINT mixamorig:RightHandRing4
											{
												OFFSET -2.190498 0.000000 0.000000
												CHANNELS 3 Xrotation Yrotation Zrotation
												End Site
												{
													OFFSET -2.190506 0.000031 0.001400
												}
											}
										}
									}
								}
								JOINT mixamorig:RightHandPinky1
								{
									OFFSET -7.677589 -0.312988 -4.019109
									CHANNELS 3 Xrotation Yrotation Zrotation
									JOINT mixamorig:RightHandPinky2
									{
										OFFSET -2.464798 0.000000 0.000000
										CHANNELS 3 Xrotation Yrotation Zrotation
										JOINT mixamorig:RightHandPinky3
										{
											OFFSET -1.935104 0.000000 0.000000
											CHANNELS 3 Xrotation Yrotation Zrotation
											JOINT mixamorig:RightHandPinky4
											{
												OFFSET -1.670403 0.000000 0.000000
												CHANNELS 3 Xrotation Yrotation Zrotation
												End Site
												{
													OFFSET -1.670395 -0.000015 -0.000800
												}
											}
										}
									}
								}
							}
						}
					}
				}
			}
		}
	}
	JOINT mixamorig:LeftUpLeg
	{
		OFFSET 8.773100 -5.559700 -1.002700
		CHANNELS 3 Xrotation Yrotation Zrotation
		JOINT mixamorig:LeftLeg
		{
			OFFSET 0.054829 -40.680889 -3.279527
			CHANNELS 3 Xrotation Yrotation Zrotation
			JOINT mixamorig:LeftFoot
			{
				OFFSET -0.054837 -37.885715 -1.253853
				CHANNELS 3 Xrotation Yrotation Zrotation
				JOINT mixamorig:LeftToeBase
				{
					OFFSET -0.956007 -9.084614 13.445478
					CHANNELS 3 Xrotation Yrotation Zrotation
					JOINT mixamorig:LeftToe_End
					{
						OFFSET -0.647369 0.327814 6.792853
						CHANNELS 3 Xrotation Yrotation Zrotation
						End Site
						{
							OFFSET -0.647369 0.327814 6.792854
						}
					}
				}
			}
		}
	}
	JOINT mixamorig:RightUpLeg
	{
		OFFSET -8.773100 -5.559700 -1.301000
		CHANNELS 3 Xrotation Yrotation Zrotation
		JOINT mixamorig:RightLeg
		{
			OFFSET -0.054804 -40.680939 -2.697344
			CHANNELS 3 Xrotation Yrotation Zrotation
			JOINT mixamorig:RightFoot
			{
				OFFSET 0.054807 -37.885651 -1.441477
				CHANNELS 3 Xrotation Yrotation Zrotation
				JOINT mixamorig:RightToeBase
				{
					OFFSET 0.955908 -9.085550 13.639909
					CHANNELS 3 Xrotation Yrotation Zrotation
					JOINT mixamorig:RightToe_End
					{
						OFFSET 0.647336 0.327335 6.933457
						CHANNELS 3 Xrotation Yrotation Zrotation
						End Site
						{
							OFFSET 0.647335 0.327335 6.933458
						}
					}
				}
			}
		}
	}
}
MOTION
Frames: 5
Frame Time: 0.033333
-0.061672 92.018562 1.392042 5.803101 0.296037 1.029219 0.261512 -0.564631 -0.052135 0.539451 -1.111989 -0.180906 0.539873 -1.110929 -0.177625 2.580046 3.034309 -3.970158 6.945283 1.338539 6.076562 -0.000000 -0.000000 -0.000000 4.561916 -10.021702 -6.882809 1.744090 -8.907734 -62.369784 0.000010 -14.397072 0.000008 3.302255 -10.997890 0.389224 -14.532221 3.965975 5.729361 16.019080 4.080653 18.962127 2.380965 -3.245600 6.971087 0.000004 -0.000000 -0.000002 6.629411 3.511422 -16.327323 0.253876 1.707542 -16.912327 0.253874 1.707560 -16.912315 -0.000002 0.000001 -0.000000 0.760930 5.129660 -28.196522 0.737855 2.848105 -29.043552 0.840060 3.024606 -31.038377 0.000001 0.000000 0.000002 0.985039 5.510540 -32.525921 0.805176 2.965987 -30.371187 0.911494 3.140056 -32.366443 0.000001 0.000000 -0.000001 -4.649402 14.578661 -19.697499 1.388141 3.787617 -40.242727 1.395858 3.796738 -40.359946 0.000001 0.000000 0.000001 6.487979 -0.279323 3.934834 -2.989246 1.370325 68.747903 0.000004 20.547847 0.000004 3.842552 12.839041 1.078926 -15.527352 -1.811852 -5.060765 16.610971 -6.266678 -19.432797 4.824315 -2.429887 -8.643987 0.000003 -0.000004 -0.000002 0.215181 -3.518758 15.373943 0.202549 -1.359923 16.942923 0.202558 -1.359927 16.942904 0.000001 -0.000000 -0.000001 0.576938 -4.437079 27.534094 0.588536 -2.268067 29.090189 0.670008 -2.408554 31.086909 0.000001 0.000000 -0.000001 0.751685 -4.742477 31.864974 0.642239 -2.361902 30.419118 0.726923 -2.500453 32.416119 0.000001 0.000000 0.000001 -4.854675 -13.976223 19.228584 1.106802 -3.015872 40.296887 1.112946 -3.023133 40.414127 0.000000 0.000001 0.000000 -20.741819 8.545550 13.530368 18.219970 4.964416 1.746124 -1.972126 1.628750 -13.312275 0.570924 -0.000005 -0.000003 -0.000000 0.000001 -0.000000 -18.696999 -9.168870 -17.076958 13.146202 1.442919 -3.242777 0.290184 -0.241847 12.561903 -3.455698 -0.000000 0.000007 0.000000 -0.000001 0.000000 
-0.040926 91.823959 1.386444 6.035407 0.801680 0.712562 0.312976 -0.530540 0.228601 0.637404 -1.145568 -0.167207 0.638794 -1.144830 -0.166990 2.400791 2.783937 -4.136497 6.000941 -0.154542 6.579880 -0.000001 0.000000 0.000000 4.580449 -10.231646 -6.086999 0.944873 -8.829556 -62.372570 0.000012 -14.920133 -0.000004 2.851356 -11.022019 0.044871 -13.991805 3.548373 5.616529 16.019087 4.080658 18.962125 2.380960 -3.245605 6.971089 -0.000000 0.000005 -0.000000 6.512169 3.079724 -14.969104 0.236239 1.648469 -16.310108 0.236240 1.648470 -16.310128 0.000003 -0.000001 0.000001 0.589392 4.789310 -26.038542 0.695596 2.770730 -28.181331 0.776576 2.916660 -29.813588 0.000002 0.000000 -0.000000 0.947687 5.455967 -30.248548 0.758587 2.885056 -29.457745 0.862046 3.060773 -31.452686 -0.000001 -0.000002 0.000002 -4.679627 14.339883 -18.041595 1.281405 3.658095 -38.599506 1.288902 3.667427 -38.716702 0.000000 0.000002 -0.000000 6.401545 -0.199404 4.290298 -2.814586 1.377901 68.323728 -0.000008 20.458396 0.000026 3.574682 12.671769 0.844455 -14.781899 -2.196070 -4.019719 16.430099 -6.653759 -21.068697 4.307752 -2.513642 -8.697104 0.000003 0.000003 -0.000001 0.197651 -3.453203 14.539915 0.183244 -1.294881 16.109484 0.183259 -1.294871 16.109510 0.000001 0.000000 -0.000003 0.515355 -4.314927 25.851008 0.523772 -2.147629 27.409320 0.601091 -2.290454 29.405727 -0.000002 0.000001 0.000002 0.674378 -4.613902 30.018408 0.568350 -2.231423 28.575934 0.648555 -2.372640 30.572535 -0.000000 -0.000000 -0.000004 -4.655408 -13.136386 18.458605 0.980477 -2.860454 37.832974 0.985920 -2.867457 37.942018 -0.000001 0.000001 0.000001 -22.918167 7.806972 13.994353 21.749057 4.424092 1.877188 -2.856151 1.043222 -13.052859 0.381511 0.000000 -0.000004 -0.000000 -0.000001 -0.000000 -19.620934 -8.928057 -16.971878 15.107730 0.916808 -3.253734 -0.771444 -0.359544 12.612219 -3.455701 0.000002 0.000005 -0.000000 0.000001 0.000000 
0.020275 91.585663 1.377039 6.256131 1.529235 0.355384 0.369479 -0.494191 0.527432 0.746959 -1.189750 -0.177364 0.749565 -1.188131 -0.177256 2.209350 2.413687 -4.199332 4.976808 -2.105804 7.131096 0.000000 0.000000 -0.000000 4.588701 -10.490914 -5.042162 -0.091205 -8.927438 -62.634993 0.000010 -15.232078 0.000008 2.753307 -10.892949 -0.119124 -13.376599 3.068240 5.484947 16.019085 4.080648 18.962132 2.380955 -3.245593 6.971064 -0.000001 0.000002 0.000000 6.399614 2.580679 -13.418377 0.216863 1.580686 -15.621568 0.216837 1.580690 -15.621635 -0.000000 0.000001 0.000002 0.416060 4.389502 -23.574297 0.648720 2.681488 -27.195636 0.706871 2.791640 -28.413517 -0.000000 -0.000003 -0.000002 0.900633 5.395727 -27.644354 0.706878 2.791624 -28.413486 0.807114 2.969224 -30.408088 0.000000 0.000000 -0.000001 -4.708440 14.077254 -16.149299 1.164045 3.506322 -36.721351 1.171225 3.515909 -36.838496 0.000000 -0.000003 0.000000 6.310379 -0.087718 4.686393 -2.382506 1.348362 67.865101 -0.000010 20.663096 -0.000028 2.997218 12.498081 0.671416 -13.895738 -2.639877 -2.770454 16.220222 -7.131022 -23.014654 3.693275 -2.611351 -8.760520 -0.000000 0.000005 0.000001 0.178016 -3.374971 13.548738 0.161563 -1.217201 15.119025 0.161533 -1.217208 15.119015 -0.000001 0.000001 0.000002 0.446867 -4.167486 23.851200 0.451444 -2.002092 25.411951 0.523733 -2.147526 27.407929 0.000000 0.000001 0.000002 0.587913 -4.457967 27.824430 0.486089 -2.073374 26.385666 0.560830 -2.217544 28.381854 0.000000 0.000000 0.000000 -4.389717 -12.148120 17.535109 0.839234 -2.668893 34.905436 0.843855 -2.675510 35.004733 -0.000001 0.000000 0.000000 -25.095916 6.674343 14.190585 25.366510 2.391266 2.255443 -3.748759 1.087425 -11.932523 -0.605792 0.002291 -0.337707 -0.000000 -0.000002 -0.000001 -20.504108 -8.720602 -16.896773 17.151274 0.205242 -3.268958 -1.895388 -0.487190 12.737952 -3.455705 0.000002 0.000006 -0.000000 0.000000 0.000000 
0.121006 91.343262 1.353310 6.567807 1.997791 0.067938 0.408946 -0.415308 0.709846 0.826791 -1.110329 -0.209583 0.829924 -1.107994 -0.209571 2.037471 1.981394 -4.201163 4.028183 -4.292081 7.699226 0.000001 0.000000 -0.000000 4.590525 -10.789037 -3.967895 -1.410768 -9.107557 -63.019601 -0.000001 -15.321742 -0.000026 2.918175 -10.860674 -0.290210 -12.701396 2.531589 5.346763 16.019089 4.080643 18.962133 2.380964 -3.245596 6.971064 0.000001 0.000002 -0.000002 6.302287 2.024365 -11.709891 0.196393 1.505642 -14.862029 0.196383 1.505660 -14.862109 -0.000001 0.000000 0.000002 0.253699 3.936790 -20.859189 0.598799 2.582106 -26.108309 0.633527 2.651763 -26.869238 -0.000000 0.000000 -0.000001 0.842999 5.331271 -24.770832 0.651816 2.687495 -27.261592 0.748443 2.867053 -29.255841 -0.000001 0.000004 0.000001 -4.733940 13.800406 -14.062685 1.040446 3.334537 -34.649963 1.047279 3.344375 -34.767066 0.000001 0.000001 0.000001 6.206627 0.067637 5.055499 -2.030170 1.486001 67.217094 -0.000012 20.545209 0.000021 2.448538 12.489696 0.843847 -12.906989 -3.123515 -1.377879 15.992779 -7.682127 -25.173671 3.011472 -2.717338 -8.831111 -0.000000 0.000003 0.000001 0.157899 -3.287866 12.450130 0.139054 -1.130672 14.021119 0.139057 -1.130681 14.021122 0.000000 0.000000 -0.000001 0.377076 -4.001364 21.634955 0.377267 -1.837947 23.198157 0.443864 -1.986044 25.193791 -0.000001 0.000000 -0.000000 0.499233 -4.281391 25.393122 0.402028 -1.894628 23.958229 0.470573 -2.041830 25.953983 -0.000003 0.000000 -0.000002 -4.058788 -11.066293 16.499855 0.694380 -2.448435 31.661246 0.698138 -2.454563 31.749803 -0.000001 0.000001 -0.000002 -26.751397 5.575700 14.155233 28.144073 0.071115 2.795392 -5.184894 1.139985 -10.629062 -1.529659 0.010013 -0.703343 -0.000000 0.000001 0.000000 -21.448403 -8.481427 -16.867197 18.897574 -0.287631 -3.280176 -2.809123 -0.594356 12.888803 -3.455704 0.000005 0.000004 0.000000 0.000001 -0.000000 
0.308511 91.085556 1.299784 7.091175 1.807281 -0.199335 0.408134 -0.294010 0.687473 0.829170 -0.868910 -0.255189 0.831602 -0.866573 -0.255232 1.868313 1.589301 -4.095184 3.347260 -6.163762 8.293170 -0.000001 -0.000001 0.000000 4.637760 -10.852298 -2.710131 -2.487132 -9.486260 -63.588378 -0.000000 -15.511681 -0.000003 2.719951 -10.607608 -0.448930 -11.980639 1.946145 5.210541 16.019087 4.080655 18.962154 2.380959 -3.245606 6.971068 -0.000001 0.000000 -0.000003 6.229277 1.421766 -9.878028 0.175540 1.424792 -14.046692 0.175535 1.424791 -14.046806 -0.000000 0.000001 0.000001 0.113789 3.439270 -17.948194 0.547302 2.474398 -24.941266 0.559055 2.499473 -25.211760 0.000000 0.000002 -0.000001 0.774052 5.263547 -21.685605 0.595068 2.574482 -26.025223 0.687783 2.756097 -28.019109 -0.000001 0.000001 -0.000001 -4.755192 13.518326 -11.823665 0.914799 3.145287 -32.427091 0.921244 3.155373 -32.544127 -0.000000 0.000001 -0.000001 6.069225 0.372292 5.341595 -2.029143 1.638320 66.348437 0.000009 19.998975 -0.000008 3.031467 12.607125 2.040140 -11.860337 -3.617284 0.099842 15.757766 -8.287447 -27.448408 2.293042 -2.826298 -8.905710 -0.000001 0.000006 -0.000001 0.138489 -3.195759 11.293750 0.117158 -1.039149 12.865419 0.117174 -1.039150 12.865448 -0.000001 0.000001 0.000002 0.310593 -3.823711 19.302574 0.306092 -1.662170 20.868190 0.366610 -1.812864 22.863401 -0.000002 -0.000001 -0.000000 0.414033 -4.091624 22.834577 0.321837 -1.702799 21.403366 0.383718 -1.852914 23.398681 -0.000001 -0.000000 -0.000001 -3.669359 -9.944399 15.395846 0.555639 -2.207909 28.247277 0.558605 -2.213438 28.324431 0.000000 0.000000 -0.000002 -27.428117 4.792351 13.941424 29.131778 -1.292164 3.573396 -7.254200 1.249404 -9.910124 -1.005121 0.001089 -0.232066 -0.000000 -0.000000 0.000000 -22.663908 -8.145485 -16.794023 20.254410 -0.245991 -3.287155 -3.392094 -0.665263 13.026128 -3.455699 0.000009 0.000000 0.000000 0.000001 0.000000 
